<svg xmlns="http://www.w3.org/2000/svg" viewBox="0 0 64 64" fill="none">
  <!-- Star with laurel wreath -->
  <g stroke="#c8a84e" stroke-width="1.5">
    <!-- Star -->
    <polygon points="32,8 37,24 54,24 40,34 45,50 32,40 19,50 24,34 10,24 27,24"
             fill="#c8a84e" fill-opacity="0.2"/>
    <!-- Inner star highlight -->
    <polygon points="32,16 35,26 44,26 37,32 39,42 32,36 25,42 27,32 20,26 29,26"
             fill="#c8a84e" fill-opacity="0.15" stroke="none"/>
    <!-- Left laurel -->
    <path d="M14 54 Q10 44 16 38" fill="none"/>
    <path d="M14 54 Q8 48 12 40" fill="none"/>
    <path d="M14 54 Q6 52 10 44" fill="none"/>
    <!-- Right laurel -->
    <path d="M50 54 Q54 44 48 38" fill="none"/>
    <path d="M50 54 Q56 48 52 40" fill="none"/>
    <path d="M50 54 Q58 52 54 44" fill="none"/>
    <!-- Bottom tie -->
    <path d="M14 54 L32 58 L50 54" fill="none" stroke-width="1"/>
  </g>
</svg>
