<svg xmlns="http://www.w3.org/2000/svg" viewBox="0 0 200 320">
  <!-- Default: generic human silhouette -->
  <g fill="#1a1a22" stroke="none">
    <!-- Head -->
    <ellipse cx="100" cy="32" rx="20" ry="26"/>
    <!-- Neck -->
    <rect x="93" y="56" width="14" height="14" rx="3"/>
    <!-- Torso -->
    <path d="M70 68 Q68 95 70 135 Q72 152 84 158 L116 158 Q128 152 130 135 Q132 95 130 68 Q118 63 100 62 Q82 63 70 68Z"/>
    <!-- Left Arm -->
    <path d="M70 70 Q54 76 46 96 Q40 115 42 142 Q43 150 48 150 Q54 148 56 138 Q60 118 64 104 Q67 88 70 78Z"/>
    <!-- Right Arm -->
    <path d="M130 70 Q146 76 154 96 Q160 115 158 142 Q157 150 152 150 Q146 148 144 138 Q140 118 136 104 Q133 88 130 78Z"/>
    <!-- Left Leg -->
    <path d="M84 156 Q80 196 78 236 Q76 266 74 286 Q73 301 80 304 Q88 304 88 291 Q90 266 92 236 Q94 196 96 168Z"/>
    <!-- Right Leg -->
    <path d="M116 156 Q120 196 122 236 Q124 266 126 286 Q127 301 120 304 Q112 304 112 291 Q110 266 108 236 Q106 196 104 168Z"/>
  </g>
</svg>
